<?xml version="1.0" encoding="UTF-8" standalone="no"?>
<svg
   version="1.0"
   width="192.000000pt"
   height="192.000000pt"
   viewBox="0 0 192.000000 192.000000"
   preserveAspectRatio="xMidYMid meet"
   id="svg8"
   sodipodi:docname="logo.svg"
   inkscape:version="1.2.2 (b0a8486541, 2022-12-01)"
   inkscape:export-filename="logo.png"
   inkscape:export-xdpi="72"
   inkscape:export-ydpi="72"
   xmlns:inkscape="http://www.inkscape.org/namespaces/inkscape"
   xmlns:sodipodi="http://sodipodi.sourceforge.net/DTD/sodipodi-0.dtd"
   xmlns="http://www.w3.org/2000/svg"
   xmlns:svg="http://www.w3.org/2000/svg">
  <defs
     id="defs12" />
  <sodipodi:namedview
     id="namedview10"
     pagecolor="#ffffff"
     bordercolor="#666666"
     borderopacity="1.0"
     inkscape:showpageshadow="2"
     inkscape:pageopacity="0.0"
     inkscape:pagecheckerboard="0"
     inkscape:deskcolor="#d1d1d1"
     inkscape:document-units="pt"
     showgrid="false"
     inkscape:zoom="8.0234375"
     inkscape:cx="195.17819"
     inkscape:cy="113.48004"
     inkscape:window-width="3840"
     inkscape:window-height="2083"
     inkscape:window-x="0"
     inkscape:window-y="0"
     inkscape:window-maximized="1"
     inkscape:current-layer="g6" />
  <metadata
     id="metadata2">
Created by potrace 1.16, written by Peter Selinger 2001-2019
</metadata>
  <g
     transform="translate(0.000000,192.000000) scale(0.100000,-0.100000)"
     fill="#000000"
     stroke="none"
     id="g6"
     inkscape:label="Ghost">
    <path
       style="display:inline;fill:#1c2b3e;fill-opacity:1"
       d="m 620,1613 c -193,-29 -344,-143 -412,-311 -21,-52 -23,-75 -26,-268 -4,-245 4,-289 71,-419 124,-239 407,-384 667,-341 112,18 185,47 276,108 143,96 240,245 283,438 44,197 133,280 300,280 h 56 l -122,122 -123,121 -72,-6 c -40,-3 -92,-13 -116,-22 -103,-42 -165,-181 -189,-425 l -8,-85 -23,35 c -20,32 -22,47 -22,173 0,207 -26,301 -112,414 -90,118 -293,207 -428,186 z"
       id="path4"
       transform="translate(0,7.4999999e-5)"
       inkscape:label="outer shape" />
    <path
       style="display:inline;fill:#ffffff"
       d="m 1449,866 c 10,-11 10,-20 1,-37 -10,-18 -14,-19 -26,-8 -8,8 -11,24 -8,37 7,26 17,28 33,8 z"
       id="path358" />
    <path
       style="display:inline;fill:#ffffff"
       d="m 1475,937 c 0,-15 -4,-28 -9,-29 -14,-5 -30,28 -23,46 10,26 32,14 32,-17 z"
       id="path356" />
    <path
       style="display:inline;fill:#ffffff"
       d="m 1288,1027 c 12,-14 5,-57 -8,-57 -10,0 -20,26 -20,51 0,22 13,25 28,6 z"
       id="path354" />
    <path
       style="display:inline;fill:#ffffff"
       d="m 1514,1028 c 7,-12 6,-21 -4,-33 -12,-14 -15,-14 -28,-2 -9,9 -11,23 -7,36 7,24 23,24 39,-1 z"
       id="path352" />
    <path
       style="display:inline;fill:#ffffff"
       d="m 1570,1095 c 11,-13 10,-18 -6,-30 -16,-12 -21,-12 -33,0 -16,16 -8,45 12,45 8,0 20,-7 27,-15 z"
       id="path350" />
    <path
       style="display:inline;fill:#ffffff"
       d="m 1315,1119 c 4,-5 4,-22 1,-35 -6,-21 -9,-24 -21,-14 -23,19 -18,60 6,60 4,0 11,-5 14,-11 z"
       id="path348" />
    <path
       style="display:inline;fill:#ffffff"
       d="m 1644,1131 c 16,-18 16,-19 -9,-25 -16,-4 -33,-2 -41,5 -24,20 -17,29 27,38 3,0 14,-7 23,-18 z"
       id="path346" />
    <path
       style="display:inline;fill:#ffffff"
       d="m 1748,1148 c 19,-19 14,-28 -16,-28 -27,0 -52,15 -52,32 0,13 55,9 68,-4 z"
       id="path344" />
    <path
       style="display:inline;fill:#ffffff"
       d="m 1349,1196 c 10,-11 10,-20 1,-37 -11,-19 -14,-20 -27,-6 -9,9 -13,23 -8,36 7,25 18,27 34,7 z"
       id="path342" />
    <path
       style="display:inline;fill:#ffffff"
       d="m 1409,1257 c 8,-11 7,-18 -7,-31 -18,-15 -20,-15 -35,2 -13,14 -14,21 -5,30 16,16 33,15 47,-1 z"
       id="path336" />
    <path
       style="display:inline;fill:#ffffff"
       d="m 1484,1291 c 16,-18 16,-19 -9,-25 -16,-4 -33,-2 -41,5 -24,20 -17,29 27,38 3,0 14,-7 23,-18 z"
       id="path334" />
    <path
       style="display:inline;fill:#ffffff"
       d="m 1588,1308 c 19,-19 14,-28 -16,-28 -27,0 -52,15 -52,32 0,13 55,9 68,-4 z"
       id="path332" />
    <path
       style="display:inline;fill:#ffffff"
       d="m 781,1193 c 33.5769,-19.9717 45.11106,-61.4596 46.68247,-98.2019 3.47572,-60.0658 3.76432,-121.105 -8.42357,-180.23855 -13.47625,-37.42958 -55.04636,-56.8852 -92.81708,-57.16425 -38.6877,-0.50521 -78.57075,21.36624 -93.20701,58.2548 -14.75639,34.44678 -11.56784,72.75845 -13.20654,109.3201 -0.11999,36.2822 -0.0805,72.5714 0.9407,108.8422 6.3747,36.7985 33.80904,72.9684 71.94546,79.7757 C 723.61592,1218.185 754.41136,1207.6529 781,1193 Z"
       id="path340"
       inkscape:label="right eye" />
    <path
       style="display:inline;fill:#ffffff"
       d="m 519.75742,1083.5016 c -3.81779,-65.9271 14.68601,-141.23406 -29.07986,-197.82758 -49.59336,-54.84216 -159.18419,-27.16712 -167.72111,49.45162 -7.36401,59.3083 -1.02582,119.60516 -1.97175,179.15426 1.95507,49.5076 41.11889,97.305 92.99637,95.5827 54.87902,1.7355 102.28374,-45.1832 104.866,-99.4214 1.12708,-8.9269 1.42213,-17.957 0.91035,-26.9396 z"
       id="path338"
       sodipodi:nodetypes="ccccccc"
       inkscape:label="left eye" />
  </g>
</svg>
